<mxfile host="app.diagrams.net" modified="2024-09-30T16:00:00.000Z" version="14.7.0" type="device">
  <diagram id="Ht1M8jgEwFfnCIfOTk4-" name="Multi-Environment AWS Architecture">
    <mxGraphModel dx="0" dy="0" grid="1" gridSize="10" guides="1" tooltips="1" connect="1" arrows="1" fold="1" page="1" math="0" shadow="0">
      <root>
        <mxCell id="0" />
        <mxCell id="1" parent="0" />

        <!-- VPC Group -->
        <mxCell id="2" value="VPC" style="group;whiteSpace=wrap;html=1;rounded=1;strokeColor=#ff9900;fillColor=#ffffe0;fontColor=#ff9900;" vertex="1" parent="1">
          <mxGeometry x="120" y="160" width="500" height="600" as="geometry" />
        </mxCell>

        <!-- S3 Buckets -->
        <mxCell id="3" value="S3 (Development)" style="shape=mxgraph.aws4.bucket;whiteSpace=wrap;html=1;strokeColor=#232F3E;fillColor=#E6F4F9;fontSize=12;" vertex="1" parent="2">
          <mxGeometry x="60" y="90" width="80" height="80" as="geometry" />
        </mxCell>
        <mxCell id="4" value="S3 (Staging)" style="shape=mxgraph.aws4.bucket;whiteSpace=wrap;html=1;strokeColor=#232F3E;fillColor=#E6F4F9;fontSize=12;" vertex="1" parent="2">
          <mxGeometry x="200" y="90" width="80" height="80" as="geometry" />
        </mxCell>
        <mxCell id="5" value="S3 (Production)" style="shape=mxgraph.aws4.bucket;whiteSpace=wrap;html=1;strokeColor=#232F3E;fillColor=#E6F4F9;fontSize=12;" vertex="1" parent="2">
          <mxGeometry x="340" y="90" width="80" height="80" as="geometry" />
        </mxCell>

        <!-- Route 53 -->
        <mxCell id="6" value="Route 53 (DNS)" style="shape=mxgraph.aws4.route_53;whiteSpace=wrap;html=1;strokeColor=#232F3E;fillColor=#F7E1B5;fontSize=12;" vertex="1" parent="2">
          <mxGeometry x="200" y="200" width="80" height="80" as="geometry" />
        </mxCell>

        <!-- Load Balancer -->
        <mxCell id="7" value="Application Load Balancer" style="shape=mxgraph.aws4.application_load_balancer;whiteSpace=wrap;html=1;strokeColor=#232F3E;fillColor=#D3E3F4;fontSize=12;" vertex="1" parent="2">
          <mxGeometry x="200" y="310" width="80" height="80" as="geometry" />
        </mxCell>

        <!-- EC2 Instances -->
        <mxCell id="8" value="EC2 (Auto-Scaling)" style="shape=mxgraph.aws4.instance;whiteSpace=wrap;html=1;strokeColor=#232F3E;fillColor=#F7F4E9;fontSize=12;" vertex="1" parent="2">
          <mxGeometry x="60" y="420" width="80" height="80" as="geometry" />
        </mxCell>
        <mxCell id="9" value="EC2 (Auto-Scaling)" style="shape=mxgraph.aws4.instance;whiteSpace=wrap;html=1;strokeColor=#232F3E;fillColor=#F7F4E9;fontSize=12;" vertex="1" parent="2">
          <mxGeometry x="340" y="420" width="80" height="80" as="geometry" />
        </mxCell>

        <!-- Lambda -->
        <mxCell id="10" value="Lambda" style="shape=mxgraph.aws4.lambda;whiteSpace=wrap;html=1;strokeColor=#F78E04;fillColor=#FFF4E9;fontSize=12;" vertex="1" parent="2">
          <mxGeometry x="200" y="530" width="80" height="80" as="geometry" />
        </mxCell>

        <!-- VPC to Internet Gateway -->
        <mxCell id="11" value="Internet Gateway" style="shape=mxgraph.aws4.internet_gateway;whiteSpace=wrap;html=1;strokeColor=#232F3E;fillColor=#F7F4E9;fontSize=12;" vertex="1" parent="1">
          <mxGeometry x="700" y="160" width="80" height="80" as="geometry" />
        </mxCell>

        <!-- Connecting Lines -->
        <mxCell id="12" style="edgeStyle=orthogonalEdgeStyle;rounded=0;html=1;strokeWidth=2;" edge="1" parent="1" source="3" target="6">
          <mxGeometry relative="1" as="geometry" />
        </mxCell>
        <mxCell id="13" style="edgeStyle=orthogonalEdgeStyle;rounded=0;html=1;strokeWidth=2;" edge="1" parent="1" source="4" target="6">
          <mxGeometry relative="1" as="geometry" />
        </mxCell>
        <mxCell id="14" style="edgeStyle=orthogonalEdgeStyle;rounded=0;html=1;strokeWidth=2;" edge="1" parent="1" source="5" target="6">
          <mxGeometry relative="1" as="geometry" />
        </mxCell>
        <mxCell id="15" style="edgeStyle=orthogonalEdgeStyle;rounded=0;html=1;strokeWidth=2;" edge="1" parent="1" source="6" target="7">
          <mxGeometry relative="1" as="geometry" />
        </mxCell>
        <mxCell id="16" style="edgeStyle=orthogonalEdgeStyle;rounded=0;html=1;strokeWidth=2;" edge="1" parent="1" source="7" target="8">
          <mxGeometry relative="1" as="geometry" />
        </mxCell>
        <mxCell id="17" style="edgeStyle=orthogonalEdgeStyle;rounded=0;html=1;strokeWidth=2;" edge="1" parent="1" source="7" target="9">
          <mxGeometry relative="1" as="geometry" />
        </mxCell>
        <mxCell id="18" style="edgeStyle=orthogonalEdgeStyle;rounded=0;html=1;strokeWidth=2;" edge="1" parent="1" source="7" target="10">
          <mxGeometry relative="1" as="geometry" />
        </mxCell>

      </root>
    </mxGraphModel>
  </diagram>
</mxfile>
